<?xml version="1.0" standalone="no"?><!DOCTYPE svg PUBLIC "-//W3C//DTD SVG 1.1//EN" "http://www.w3.org/Graphics/SVG/1.1/DTD/svg11.dtd"><svg t="1525699574728" class="icon" style="" viewBox="0 0 1024 1024" version="1.1" xmlns="http://www.w3.org/2000/svg" p-id="3275" xmlns:xlink="http://www.w3.org/1999/xlink" width="200" height="200"><defs><style type="text/css"></style></defs><path d="M949.333333 548.266667l-53.333333-115.2v-6.4c0-104.533333-42.666667-202.666667-115.2-273.066667-68.266667-64-157.866667-96-249.6-89.6-4.266667 0-6.4 2.133333-8.533333 2.133333-12.8-2.133333-27.733333-2.133333-40.533334-2.133333-181.333333 0-330.666667 162.133333-330.666666 362.666667v6.4l-53.333334 115.2c-2.133333 4.266667-2.133333 10.666667 0 17.066666 2.133333 4.266667 6.4 10.666667 10.666667 12.8l85.333333 40.533334v151.466666c0 12.8 8.533333 21.333333 21.333334 21.333334h106.666666v149.333333c0 12.8 8.533333 21.333333 21.333334 21.333333h362.666666c12.8 0 21.333333-8.533333 21.333334-21.333333v-149.333333h106.666666c12.8 0 21.333333-8.533333 21.333334-21.333334v-151.466666l85.333333-40.533334c4.266667-2.133333 8.533333-6.4 10.666667-12.8 0-6.4 0-12.8-2.133334-17.066666z m-390.4 369.066666h-196.266666v-149.333333c0-12.8-8.533333-21.333333-21.333334-21.333333h-106.666666v-142.933334c0-8.533333-4.266667-14.933333-12.8-19.2l-78.933334-36.266666 46.933334-100.266667c2.133333-2.133333 2.133333-6.4 2.133333-8.533333v-10.666667c0-177.066667 130.133333-320 288-320s288 142.933333 288 320c0 108.8-49.066667 209.066667-132.266667 268.8l-8.533333 6.4c-6.4 4.266667-8.533333 10.666667-8.533333 17.066667v198.4h-59.733334v-2.133334z m264.533334-332.8c-8.533333 4.266667-12.8 10.666667-12.8 19.2v142.933334h-106.666667c-12.8 0-21.333333 8.533333-21.333333 21.333333v149.333333h-21.333334v-187.733333c93.866667-68.266667 149.333333-181.333333 149.333334-302.933333s-53.333333-228.266667-136.533334-294.4c27.733333 12.8 53.333333 29.866667 78.933334 53.333333 64 61.866667 102.4 149.333333 102.4 241.066667v10.666666c0 4.266667 0 6.4 2.133333 8.533334l46.933333 100.266666-81.066666 38.4z" fill="#ffffff" p-id="3276"></path><path d="M569.6 441.6c8.533333-8.533333 6.4-21.333333-2.133333-29.866667l-42.666667-36.266666-57.6 51.2 57.6 51.2 44.8-36.266667z" fill="#ffffff" p-id="3277"></path><path d="M704 339.2h-85.333333v-55.466667c0-8.533333-4.266667-17.066667-12.8-19.2-8.533333-4.266667-17.066667-2.133333-23.466667 4.266667l-91.733333 83.2-91.733334-83.2c-6.4-6.4-14.933333-6.4-23.466666-4.266667-8.533333 4.266667-12.8 10.666667-12.8 19.2v59.733334h-85.333334c-12.8 0-21.333333 8.533333-21.333333 21.333333v128c0 12.8 8.533333 21.333333 21.333333 21.333333h85.333334v59.733334c0 8.533333 4.266667 17.066667 12.8 19.2 2.133333 2.133333 6.4 2.133333 8.533333 2.133333 4.266667 0 10.666667-2.133333 14.933333-6.4l91.733334-83.2 91.733333 83.2c4.266667 4.266667 8.533333 6.4 14.933333 6.4 2.133333 0 6.4 0 8.533334-2.133333 8.533333-4.266667 12.8-10.666667 12.8-19.2v-61.866667h85.333333c12.8 0 21.333333-8.533333 21.333333-21.333333v-128c0-14.933333-8.533333-23.466667-21.333333-23.466667z m-298.666667 183.466667v-32c0-12.8-8.533333-21.333333-21.333333-21.333334h-85.333333v-85.333333h85.333333c12.8 0 21.333333-8.533333 21.333333-21.333333v-32l53.333334 49.066666-36.266667 32c-4.266667 4.266667-6.4 10.666667-6.4 14.933334s2.133333 12.8 6.4 14.933333l36.266667 32-53.333334 49.066667z m277.333334-55.466667h-85.333334c-12.8 0-21.333333 8.533333-21.333333 21.333333v34.133334l-53.333333-49.066667-32-27.733333-21.333334-19.2 21.333334-19.2 32-27.733334 53.333333-49.066666v29.866666c0 12.8 8.533333 21.333333 21.333333 21.333334h85.333334v85.333333z" fill="#ffffff" p-id="3278"></path></svg>