<?xml version="1.0" standalone="no"?><!DOCTYPE svg PUBLIC "-//W3C//DTD SVG 1.1//EN" "http://www.w3.org/Graphics/SVG/1.1/DTD/svg11.dtd"><svg t="1525695362607" class="icon" style="" viewBox="0 0 1024 1024" version="1.1" xmlns="http://www.w3.org/2000/svg" p-id="2277" xmlns:xlink="http://www.w3.org/1999/xlink" width="200" height="200"><defs><style type="text/css"></style></defs><path d="M318.7584 875.5584h611.0848c2.40768 0 4.76416-0.24192 7.03104-0.70784 9.09696-1.85856 16.90368-7.24992 21.92384-14.68416a34.7648 34.7648 0 0 0 5.96224-19.5264V299.39456H318.7584V875.5584zM56.86528 840.64128a34.7776 34.7776 0 0 0 5.96352 19.5264c5.01632 7.43424 12.82176 12.8256 21.91872 14.68416 2.272 0.46464 4.62848 0.70784 7.03744 0.70784H283.84V299.39456H56.86528v541.24672z m901.9328-665.52192c-5.02016-7.42912-12.82688-12.82688-21.92384-14.68416a34.38592 34.38592 0 0 0-7.03104-0.7168H91.78496c-2.40896 0-4.76544 0.2432-7.03744 0.7168-9.09696 1.85856-16.90112 7.25504-21.91872 14.68416a34.75968 34.75968 0 0 0-5.96352 19.51872v69.83808h907.89504v-69.83808a34.752 34.752 0 0 0-5.96224-19.51872" fill="#FFFFFF" p-id="2278"></path><path d="M91.78496 526.37312h139.67616v-17.4592H91.78496v17.4592z m0 139.67616h122.21696v-17.4592H91.78496v17.4592z" fill="#85AB70" p-id="2279"></path><path d="M91.78496 421.61536h157.13536v-17.4592H91.78496v17.4592z m637.27232 34.91968c0-9.64608-7.81312-17.4592-17.4592-17.4592-8.08192 0-14.81472 5.51552-16.80384 12.98432l-0.06528-0.02176-69.83808 261.89312 0.06528 0.02176c-0.38528 1.4272-0.65792 2.91584-0.65792 4.47616 0 9.63712 7.81312 17.4592 17.46048 17.4592 8.08064 0 14.81216-5.51552 16.80256-12.98304l0.064 0.02176 69.83936-261.89312-0.06528-0.02176c0.38528-1.42976 0.65792-2.9184 0.65792-4.47744m-637.27232 0h139.67616v-17.4592H91.78496v17.4592z m0 34.9184h78.56768v-17.4592H91.78496v17.4592z" fill="#F7D54A" p-id="2280"></path><path d="M598.11072 500.18432c0-9.6384-7.81312-17.46048-17.4592-17.46048a17.41952 17.41952 0 0 0-12.3456 5.11488l-87.29856 87.29728a17.4208 17.4208 0 0 0-5.11488 12.3456c0 4.81664 1.95584 9.18144 5.11488 12.3456l87.29856 87.296a17.41568 17.41568 0 0 0 12.3456 5.11616c9.6448 0 17.4592-7.81312 17.4592-17.46048 0-4.82432-1.95584-9.18912-5.11616-12.352L518.0416 587.4816l74.95296-74.944a17.44 17.44 0 0 0 5.11616-12.35328m279.35232 87.29728c0-4.81792-1.95584-9.18144-5.1136-12.3456l-87.29856-87.29728a17.41568 17.41568 0 0 0-12.34304-5.11488c-9.64864 0-17.46176 7.82208-17.46176 17.46048 0 4.81536 1.95584 9.18144 5.11616 12.34432l74.95296 74.95296-74.95296 74.95424a17.41184 17.41184 0 0 0-5.11616 12.34432c0 9.64736 7.81312 17.46048 17.46176 17.46048 4.81536 0 9.18144-1.95584 12.34304-5.11616l87.29856-87.296a17.44128 17.44128 0 0 0 5.1136-12.34688m-663.4624-218.24384H91.78496v17.4592h122.21696v-17.4592z m-34.9184 174.59456H91.78496v17.4592h87.29856v-17.4592zM91.78496 596.2112h157.13536v-17.46048H91.78496v17.46048z" fill="#86AEDD" p-id="2281"></path><path d="M91.78496 351.77728h157.13536v-17.46048H91.78496v17.46048z m0 279.35232h104.75648v-17.4592H91.78496v17.4592z" fill="#EE6A56" p-id="2282"></path><path d="M371.13728 875.5648h17.4592v-576.1664h-17.4592v576.1664zM109.24416 194.64192c-9.64736 0-17.46048 7.82208-17.46048 17.46048 0 9.64608 7.81312 17.4592 17.46048 17.4592 9.64608 0 17.4592-7.81312 17.4592-17.4592 0-9.6384-7.81312-17.46048-17.4592-17.46048m52.37888 0c-9.64608 0-17.4592 7.82208-17.4592 17.46048 0 9.64608 7.81312 17.4592 17.4592 17.4592 9.64736 0 17.46048-7.81312 17.46048-17.4592-0.00128-9.6384-7.8144-17.46048-17.46048-17.46048m52.3776 0c-9.64608 0-17.46048 7.82208-17.46048 17.46048 0 9.64608 7.81312 17.4592 17.46048 17.4592 9.64608 0 17.4592-7.81312 17.4592-17.4592 0-9.6384-7.81312-17.46048-17.4592-17.46048" fill="" p-id="2283"></path><path d="M318.7584 788.26496h17.46048v-17.4592H318.7584v17.4592z m17.4592-52.37888h17.4592v-17.4592h-17.4592v17.4592z m-17.4592 17.46176h17.46048v-17.46176H318.7584v17.46176z m0-34.92096h17.46048v-17.4592H318.7584v17.4592z m17.4592 52.37888h17.4592v-17.4592h-17.4592v17.4592z m-17.4592 87.29856h17.46048v-17.4592H318.7584v17.4592z m52.37888-52.37888h-17.4592v17.46048h17.4592v-17.46048z m0-69.83936h-17.4592v17.46176h17.4592v-17.46176z m0 34.91968h-17.4592v17.4592h17.4592v-17.4592z m0-69.8368h-17.4592v17.4592h17.4592v-17.4592z m0-34.91968h-17.4592v17.46176h17.4592v-17.46176zM318.7584 823.18464h17.46048v-17.46048H318.7584v17.46048z m17.4592 17.46048h17.4592v-17.46048h-17.4592v17.46048z m0-34.91968h17.4592v-17.46048h-17.4592v17.46048z m0-104.75648h17.4592v-17.4592h-17.4592v17.4592z m34.91968 139.67616h-17.4592v17.4592h17.4592v-17.4592z m-34.91968 34.91968h17.4592v-17.46176h-17.4592v17.46176z m-17.4592-436.48896h17.46048v-17.46048H318.7584v17.46048z m52.37888 192.05376h-17.4592v17.46048h17.4592V631.1296zM336.2176 491.45344h17.4592v-17.4592h-17.4592v17.4592z m0-34.9184h17.4592v-17.4592h-17.4592v17.4592z m34.91968 104.75648h-17.4592v17.46048h17.4592v-17.46048z m-52.37888-87.29728h17.46048v-17.4592H318.7584v17.4592z m52.37888 122.21696h-17.4592v17.46048h17.4592V596.2112z m0-174.59584h-17.4592v17.46048h17.4592v-17.46048z m0 34.91968h-17.4592v17.4592h17.4592v-17.4592z m0 34.9184h-17.4592v17.46048h17.4592v-17.46048z m0 34.91968h-17.4592v17.46048h17.4592v-17.46048z m-34.91968 34.9184h17.4592v-17.4592h-17.4592v17.4592z m0 34.91968h17.4592v-17.46048h-17.4592v17.46048z m-17.4592-87.29728h17.46048v-17.46048H318.7584v17.46048z m0 104.75776h17.46048V596.2112H318.7584v17.46048z m17.4592 52.3776h17.4592v-17.4592h-17.4592v17.4592z m-17.4592-17.4592h17.46048V631.1296H318.7584v17.46048z m17.4592-17.46048h17.4592v-17.4592h-17.4592v17.4592z m-17.4592-52.37888h17.46048v-17.46048H318.7584v17.46048z m0-34.9184h17.46048v-17.46048H318.7584v17.46048z m17.4592-17.4592h17.4592v-17.4592h-17.4592v17.4592z m-17.4592 157.13664h17.46048V666.048H318.7584v17.46176z m52.37888-331.73248h-17.4592v17.46048h17.4592v-17.46048z m0 34.91968h-17.4592v17.46048h17.4592v-17.46048z m-52.37888-52.37888h17.46048v-17.4592H318.7584v17.4592z m34.91968-34.91968h-17.4592v17.46048h17.4592v-17.46048z m17.4592 17.46048h-17.4592v17.4592h17.4592v-17.4592z m-34.91968 34.9184h17.4592v-17.46048h-17.4592v17.46048z m0 69.83808h17.4592v-17.4592h-17.4592v17.4592z m-17.4592-52.3776h17.46048v-17.46048H318.7584v17.46048z m0 34.91968h17.46048v-17.46048H318.7584v17.46048z m17.4592-17.46048h17.4592v-17.4592h-17.4592v17.4592z" fill="" p-id="2284"></path><path d="M929.84192 124.80384H91.78496c-38.56768 0-69.83808 31.2704-69.83808 69.83808v646.0032c0 38.56768 31.2704 69.83808 69.83808 69.83808H929.8432c38.56768 0 69.83808-31.2704 69.83808-69.83808v-646.0032c-0.00128-38.56768-31.27168-69.83808-69.83936-69.83808M91.78496 875.5648c-19.28448 0-34.91968-15.63776-34.91968-34.91968V299.3984H283.84v576.1664H91.78496z m872.97536-34.91968c0 19.28192-15.6352 34.91968-34.91712 34.91968H318.7584v-576.1664h646.00192v541.24672z m0-576.16512H56.86528v-69.83808c0-19.28448 15.6352-34.91968 34.91968-34.91968H929.8432c19.28192 0 34.91712 15.6352 34.91712 34.91968v69.83808z" fill="" p-id="2285"></path></svg>